Simulation
nRows=46
nColumns=15
endheader
time  TH_x TH_y TH_z SC_y  SC_z  SC_x  AC_y  AC_z  AC_x  GH_y  GH_z  GH_yy  EL_x  PS_y
1.3999999999999995  0.000000  0.000000  0.000000  -30.92462330776612  8.716822215549564  24.254167846901435  71.50327976264508  10.116408552956013  -5.136172491333528  -0.9332855947444447  58.17515007910263  -30.103737063550433  24.461064181956466  120.000000
1.4279999999999995  0.000000  0.000000  0.000000  -31.804097208547116  8.94873318424936  25.303585201310856  71.95792746394328  9.818984887143086  -4.763446251080179  -1.1677351570704904  58.13787710782535  -30.593267871484436  24.673072354477704  120.000000
1.4559999999999995  0.000000  0.000000  0.000000  -32.60526500106458  9.146925754472395  26.31550931243104  72.34994099662549  9.456133797806583  -4.46988547122442  -1.2968880535378513  58.042599189847714  -31.08422267345224  24.85038434907242  120.000000
1.4839999999999995  0.000000  0.000000  0.000000  -33.29330550544245  9.314894094891713  27.2691374413445  72.66791118546877  9.035081483425213  -4.258569099229285  -1.3269891153489626  57.887956106766104  -31.562032033920858  24.991204833174628  120.000000
1.5119999999999996  0.000000  0.000000  0.000000  -33.83718359147143  9.455335523556807  28.144644143201205  72.90238614134337  8.564571216637377  -4.132704570021825  -1.266890787942492  57.675106127156106  -32.012815694393915  25.094557243979708  120.000000
1.5399999999999994  0.000000  0.000000  0.000000  -34.212082402150024  9.569488877949423  28.923940411188696  73.04644752842701  8.054418376094441  -4.095842966198162  -1.1267429716736792  57.40817532251295  -32.424827678795836  25.159983365670744  120.000000
1.5679999999999994  0.000000  0.000000  0.000000  -34.40109469366509  9.65682660669015  29.5911179888005  73.096342409863  7.514921592814209  -4.151614290431337  -0.9168463749148096  57.09416673940096  -32.789647671544046  25.187320067448784  120.000000
1.5959999999999994  0.000000  0.000000  0.000000  -34.39667450248618  9.714974529940376  30.132930106598074  73.05167442087107  6.95649224824843  -4.303057599005625  -0.6464469705069722  56.74230313783069  -33.10296502885228  25.1766770592083  120.000000
1.6239999999999994  0.000000  0.000000  0.000000  -34.2018544192908  9.73989845713879  30.53927585480616  72.91565807099934  6.389773725124084  -4.552052666128136  -0.3230921318237692  56.36298235287084  -33.36518722378313  25.12849597721968  120.000000
1.6519999999999995  0.000000  0.000000  0.000000  -33.830909446392084  9.726280230896014  30.803774444657922  72.69497684905576  5.825854910863154  -4.898675338194525  0.04762385094785825  55.96660385590966  -33.58142356246984  25.043765925311654  120.000000
1.6799999999999995  0.000000  0.000000  0.000000  -33.30840219516487  9.66793329399184  30.923866078487556  72.39931734538457  5.276230545184107  -5.3407841624675205  0.4616243487245002  55.56275195477487  -33.76071054808463  24.924237251581836  120.000000
1.7079999999999993  0.000000  0.000000  0.000000  -32.66586240511077  9.55864014803054  30.900328564846212  72.04018351258898  4.752245023200459  -5.873765953369128  0.9153312156854833  55.15965113521628  -33.914024805498244  24.772411393378306  120.000000
1.7359999999999993  0.000000  0.000000  0.000000  -31.936723488589983  9.393112252364395  30.736186452976362  71.62932996579866  4.264350358446861  -6.490548971903558  1.404572593877005  54.763929187852234  -34.05149733330549  24.591478466213385  120.000000
1.7639999999999993  0.000000  0.000000  0.000000  -31.150877963090974  9.167872504917522  30.435596861328847  71.17694297305846  3.821154332314079  -7.1816292513500715  1.9236499854668843  54.38052103326707  -34.179193356769275  24.38535200143576  120.000000
1.7919999999999994  0.000000  0.000000  0.000000  -30.330165105504555  8.882185586149301  30.002852331353143  70.68976894419258  3.428340098354854  -7.9352611538219575  2.464668593308469  54.01273012101541  -34.296302220016436  24.158551585119167  120.000000
1.8199999999999994  0.000000  0.000000  0.000000  -29.486199909162924  8.538567451425932  29.441646143568256  70.17002681077084  3.0883257847744514  -8.73775882615962  3.0172249559070075  53.662260308805465  -34.393419080328115  23.916090268335708  120.000000
1.8479999999999994  0.000000  0.000000  0.000000  -28.62109344705164  8.142714606870413  28.755009851358412  69.61546788983705  2.800827238786407  -9.573838517903466  3.5689724723201035  53.32918178158289  -34.4526927624226  23.66320473225361  120.000000
1.8759999999999994  0.000000  0.000000  0.000000  -27.730411229520275  7.7028058341392995  27.94643188279906  69.02071638305513  2.5631326126852114  -10.427525473435665  4.106515436491184  53.01184551139278  -34.44975046240378  23.404939852916673  120.000000
1.9039999999999992  0.000000  0.000000  0.000000  -26.807497778870484  7.228352606782445  27.0210213883468  68.378902634337  2.3706503402312196  -11.28272807946766  4.616910982238598  52.70648993174267  -34.35629890698134  23.145710517042566  120.000000
1.9319999999999993  0.000000  0.000000  0.000000  -25.847439297791038  6.7289940678842495  25.98606107829397  67.68390228064268  2.2173859778942724  -12.123931025756708  5.089033705507398  52.40737801386466  -34.14368160576126  22.88880637137684  120.000000
1.9599999999999993  0.000000  0.000000  0.000000  -24.849927795870446  6.213469635022607  24.851985093008818  66.93198517415465  2.0963779876622337  -12.936559911544673  5.515019688639667  52.106498797771636  -33.78605353161942  22.63620279688061  120.000000
1.9879999999999993  0.000000  0.000000  0.000000  -23.82012262576143  5.6890791480315475  23.632482623164087  66.1228851456267  1.9998935865846428  -13.707813269225515  5.890899954503418  51.79402977278582  -33.263637575506266  22.388772791445668  120.000000
2.015999999999999  0.000000  0.000000  0.000000  -22.768224999132944  5.1616309247510115  22.344705592765994  65.2597269947577  1.9198831444065068  -14.427129500522911  6.21668239605571  51.45811244298715  -32.564936040531855  22.14699692770784  120.000000
2.043999999999999  0.000000  0.000000  0.000000  -21.707873948153892  4.635620494472673  21.008537113969222  64.34886457256964  1.8483025215442455  -15.087141071522213  6.495591085672745  51.08536669972257  -31.689401215254208  21.911763458699905  120.000000
2.071999999999999  0.000000  0.000000  0.000000  -20.65444102189037  4.114509050933262  19.646074455084797  63.39949526132683  1.7776274872118978  -15.683672793829833  6.733245941144272  50.661033299597285  -30.648485040766353  21.685389055163537  120.000000
2.099999999999999  0.000000  0.000000  0.000000  -19.623233560034468  3.600925264676391  18.280526026194238  62.42390054609637  1.701092313940075  -16.215516727306728  6.9367016096161755  50.17007492767201  -29.466024432065485  21.472353810105314  120.000000
2.1279999999999992  0.000000  0.000000  0.000000  -18.628518943613887  3.096829978429689  16.93517884005628  61.4372004862466  1.6128302470472313  -16.68351694127045  7.113458907109085  49.59825750183223  -28.175596692932917  21.279597093631008  120.000000
2.1559999999999993  0.000000  0.000000  0.000000  -17.683535333063386  2.60363083204622  15.632097719298537  60.4566970153131  1.50800275248602  -17.090312242207602  7.270847828187038  48.93298875382402  -26.815707147212194  21.115548839186577  120.000000
2.1839999999999993  0.000000  0.000000  0.000000  -16.80062078996312  2.1225020967793244  14.390299446422892  59.50001080760537  1.3830621660814664  -17.43974601588719  7.4153139391869685  48.16423356278739  -25.42270019712937  20.988801966077983  120.000000
2.2119999999999993  0.000000  0.000000  0.000000  -15.991064667294227  1.6545321407830789  13.224386159879339  58.58336986288609  1.2369112151423045  -17.73637012947883  7.552297997421352  47.284615896099226  -24.02393199643236  20.906631298277766  120.000000
2.2399999999999993  0.000000  0.000000  0.000000  -15.264225847767037  1.2012683945114522  12.143975958502262  57.719724104868156  1.0707980334583727  -17.98521067168861  7.6857020439974555  46.29007689391403  -22.632174954866343  20.87383754215361  120.000000
2.2679999999999993  0.000000  0.000000  0.000000  -14.627027786016605  0.7652282276655055  11.154582360054267  56.91759913621288  0.8884164223967926  -18.191909419986704  7.818373430930063  45.17894950805637  -21.2438017961534  20.892379018530885  120.000000
2.2959999999999994  0.000000  0.000000  0.000000  -14.082875080725163  0.34978444935177605  10.257605458265255  56.18125145163712  0.6951659036015899  -18.36256141989079  7.951543676816112  43.95246998843853  -19.842409465262122  20.961514431919415  120.000000
2.3239999999999994  0.000000  0.000000  0.000000  -13.63152054948088  -0.041273113715699486  9.451239298169336  55.511364744201515  0.4978103905024758  -18.502739625566132  8.085697413026228  42.61363723185441  -18.40516444617543  21.07855117698483  120.000000
2.351999999999999  0.000000  0.000000  0.000000  -13.268439308197223  -0.40470979446990485  8.730756278143177  54.90646046919913  0.3029190326996544  -18.617462281364695  8.220411332723403  41.167944080904796  -16.911176258495487  21.239855479956613  120.000000
2.379999999999999  0.000000  0.000000  0.000000  -12.98522384899721  -0.7380949726735634  8.090198257305921  54.36367189829736  0.1161744318154876  -18.710314861063996  8.355251688306659  39.623042199651614  -15.348220547924749  21.441452325087965  120.000000
2.407999999999999  0.000000  0.000000  0.000000  -12.769777961815539  -1.0400669451225224  7.5226041829417065  53.87981838893516  -0.058322794578305345  -18.784004582707844  8.489555244200965  37.9899008355067  -13.717528643145355  21.67945799207843  120.000000
2.435999999999999  0.000000  0.000000  0.000000  -12.607970163682852  -1.3096829806179842  7.0211088538221915  53.45047287360749  -0.21803002171211763  -18.840139405976096  8.62348886982536  36.28188345813969  -12.033086755493553  21.949951519240955  120.000000
2.463999999999999  0.000000  0.000000  0.000000  -12.484699533126268  -1.5460966953105335  6.578695730441021  53.07054410242916  -0.3620741363310677  -18.880202068129755  8.758107447756231  34.51504095321523  -10.319713672932657  22.24855558152387  120.000000
2.491999999999999  0.000000  0.000000  0.000000  -12.385605270043282  -1.7479575299065748  6.189017770010092  52.73356300337552  -0.4905771975320253  -18.90497424741184  8.896183833932476  32.707198580078206  -8.60801349664204  22.569816124421607  120.000000
2.519999999999999  0.000000  0.000000  0.000000  -12.298802868558328  -1.9135945516246278  5.846246936114574  52.433709841998066  -0.6042717912616248  -18.914910996029988  9.042075025712109  30.877881688759185  -6.931522973065746  22.906303869338036  120.000000
2.547999999999999  0.000000  0.000000  0.000000  -12.216836466829337  -2.041353857598266  5.545912871144449  52.16571356569917  -0.7036755161326299  -18.910080311746224  9.201591168409752  29.047791635918145  -5.323602052806531  23.247952537874493  120.000000
2.575999999999999  0.000000  0.000000  0.000000  -12.138240672425304  -2.130452086173036  5.285194974433418  51.92627944954555  -0.7869017414732452  -18.892326136048936  9.382080057603071  27.238189974655583  -3.8151858231446005  23.58340841259076  120.000000
2.603999999999999  0.000000  0.000000  0.000000  -12.06816375452836  -2.182201517775165  5.062433720168446  51.713116033947614  -0.847299204236197  -18.867473967692096  9.592189131735514  25.46971206849182  -2.432983384390561  23.903138549713145  120.000000
2.6319999999999992  0.000000  0.000000  0.000000  -12.017735633126875  -2.202181981239288  4.87549168108997  51.524755708284594  -0.871046112621883  -18.847151470140066  9.843077657280443  23.759806608124155  -1.1961684003814785  24.203903144826285  120.000000
2.6599999999999993  0.000000  0.000000  0.000000  -11.998600801290637  -2.2033363417653717  4.717190356789471  51.363462380474495  -0.8381337724784144  -18.848181733474327  10.15042447317722  22.120387887590454  -0.11295445097308027  24.49752152076281  120.000000
